<svg width="23" height="20" viewBox="0 0 23 20" fill="none" xmlns="http://www.w3.org/2000/svg">
<g id="Group">
<path id="Vector" d="M1.87459 17.3744C3.27324 19 5.87473 19 11.0789 19H11.9204C17.1245 19 19.7272 19 21.1258 17.3744M1.87459 17.3744C0.475943 15.7476 0.956146 13.2794 1.91539 8.34062C2.59723 4.83062 2.93757 3.0745 4.23248 2.03725M21.1258 17.3744C22.5245 15.7476 22.0443 13.2794 21.085 8.34062C20.4032 4.83062 20.0617 3.0745 18.7668 2.03725M18.7668 2.03725C17.473 1 15.621 1 11.9204 1H11.0789C7.37828 1 5.5274 1 4.23248 2.03725" stroke="black" stroke-width="1.5"/>
<path id="Vector_2" d="M8.20041 5.5C8.44121 6.15872 8.88777 6.72914 9.47854 7.13261C10.0693 7.53609 10.7752 7.75276 11.4989 7.75276C12.2226 7.75276 12.9285 7.53609 13.5192 7.13261C14.11 6.72914 14.5566 6.15872 14.7974 5.5" stroke="black" stroke-width="1.5" stroke-linecap="round"/>
</g>
</svg>
