<svg width="34" height="34" viewBox="0 0 34 34" fill="none" xmlns="http://www.w3.org/2000/svg">
<g id="expanded">
<g id="Group">
<path id="Vector" d="M17.9032 16.9994L24.3596 10.5431C24.6089 10.2938 24.6089 9.88954 24.3596 9.6402C24.1102 9.39087 23.706 9.39087 23.4566 9.6402L17.0002 16.0965L10.5439 9.64012C10.2946 9.39079 9.89033 9.39079 9.641 9.64012C9.39158 9.88946 9.39158 10.2937 9.641 10.543L16.0972 16.9994L9.64092 23.4558C9.3915 23.7052 9.3915 24.1094 9.64092 24.3588C9.76558 24.4834 9.92896 24.5458 10.0924 24.5458C10.2559 24.5458 10.4192 24.4834 10.5439 24.3588L17.0002 17.9024L23.4566 24.3588C23.5813 24.4834 23.7446 24.5458 23.9081 24.5458C24.0715 24.5458 24.2349 24.4834 24.3596 24.3588C24.6089 24.1094 24.6089 23.7052 24.3596 23.4558L17.9032 16.9994Z" fill="black"/>
<path id="Vector_2" d="M17 1.277C19.1232 1.277 21.1821 1.69258 23.1198 2.51209C24.9918 3.30391 26.6735 4.4378 28.1178 5.88216C29.5623 7.3266 30.6961 9.00816 31.488 10.8803C32.3075 12.8179 32.723 14.8768 32.723 17C32.723 19.1232 32.3075 21.1821 31.4879 23.1198C30.696 24.9918 29.5622 26.6735 28.1178 28.1178C26.6734 29.5623 24.9918 30.6961 23.1197 31.488C21.1821 32.3075 19.1232 32.723 17 32.723C14.8768 32.723 12.8179 32.3075 10.8803 31.4879C9.00816 30.696 7.3266 29.5622 5.88216 28.1178C4.4378 26.6734 3.30391 24.9918 2.51209 23.1197C1.69258 21.1821 1.277 19.1232 1.277 17C1.277 14.8768 1.69258 12.8179 2.51209 10.8803C3.30391 9.00816 4.4378 7.3266 5.88216 5.88216C7.3266 4.4378 9.00816 3.30391 10.8803 2.51209C12.8179 1.69258 14.8768 1.277 17 1.277ZM17 0C7.61113 0 0 7.61113 0 17C0 26.3889 7.61113 34 17 34C26.3889 34 34 26.3889 34 17C34 7.61113 26.3889 0 17 0Z" fill="black"/>
</g>
</g>
</svg>
