<svg width="15" height="16" viewBox="0 0 15 16" fill="none" xmlns="http://www.w3.org/2000/svg">
<g id="expanded">
<g id="Group">
<path id="Vector" d="M8.39748 8L14.8141 1.5833C15.062 1.3355 15.062 0.933734 14.8141 0.685931C14.5663 0.438128 14.1646 0.438128 13.9167 0.685931L7.50003 7.10255L1.08336 0.685852C0.835557 0.438049 0.433791 0.438049 0.18599 0.685852C-0.0618916 0.933655 -0.0618916 1.33542 0.18599 1.58322L6.60258 8L0.185911 14.4167C-0.0619703 14.6646 -0.0619703 15.0663 0.185911 15.3141C0.309812 15.4381 0.472184 15.5 0.634635 15.5C0.797086 15.5 0.959458 15.4381 1.08336 15.3141L7.50003 8.89745L13.9167 15.3141C14.0407 15.4381 14.203 15.5 14.3654 15.5C14.5279 15.5 14.6902 15.4381 14.8141 15.3141C15.062 15.0663 15.062 14.6646 14.8141 14.4167L8.39748 8Z" fill="black"/>
</g>
</g>
</svg>
