<svg width="29" height="24" viewBox="0 0 29 24" fill="none" xmlns="http://www.w3.org/2000/svg">
<path id="Vector" fill-rule="evenodd" clip-rule="evenodd" d="M29.0002 23.5V0.5H0.000244141V23.5H29.0002ZM24.8429 18.7855V23.2602H4.48531V19.0252H4.52021L4.62328 18.9888L12.2657 12.4515L14.5777 14.5326L16.6308 12.6166L24.8429 18.7855ZM24.8429 17.9943L17.0615 12.2117L24.8429 5.04838V17.9943ZM23.5494 0.73922L22.4964 1.80721L21.9964 2.32381L21.5307 2.83819L21.0475 3.31711L20.5993 3.79609L20.168 4.238L19.7705 4.67991L19.3566 5.08534L18.977 5.49077L18.2698 6.24551L17.5963 6.92664L17.2866 7.23995L17.0102 7.55272L16.7174 7.81105L16.4578 8.06824L15.9927 8.54776L15.768 8.74997L15.5782 8.9532L15.3885 9.11718L15.2325 9.3025L14.9397 9.56077L14.8192 9.65175L14.7325 9.76298L14.6295 9.81796L14.5602 9.89205L14.474 9.96506L5.70956 0.702686L23.5494 0.73922ZM11.8174 12.0461L4.48531 18.2699L4.50222 5.43519L11.8174 12.0461Z" fill="black"/>
</svg>
