<svg width="21" height="18" viewBox="0 0 21 18" fill="none" xmlns="http://www.w3.org/2000/svg">
<path id="Vector" d="M10.5 2.85238L9.97256 3.35249C10.0409 3.4223 10.1228 3.47783 10.2134 3.51575C10.3041 3.55368 10.4015 3.57323 10.5 3.57323C10.5985 3.57323 10.6959 3.55368 10.7866 3.51575C10.8772 3.47783 10.9591 3.4223 11.0274 3.35249L10.5 2.85238ZM7.98586 15.184C6.50512 14.0347 4.88665 12.9123 3.60223 11.4889C2.34419 10.0925 1.46512 8.46325 1.46512 6.35028H0C0 8.91431 1.08419 10.8705 2.5073 12.4468C3.90405 13.9953 5.68563 15.2359 7.07846 16.3169L7.98684 15.184H7.98586ZM1.46512 6.35028C1.46512 4.2825 2.65186 2.5475 4.27228 1.81753C5.84679 1.10872 7.96242 1.29626 9.97256 3.35249L11.0274 2.35323C8.64419 -0.086744 5.87414 -0.489719 3.66279 0.505696C1.50028 1.47995 0 3.742 0 6.35028H1.46512ZM7.07846 16.3169C7.57953 16.7055 8.11674 17.119 8.66079 17.4326C9.20484 17.7451 9.82605 18 10.5 18V16.5574C10.1972 16.5574 9.84167 16.442 9.40019 16.1871C8.95772 15.9332 8.49963 15.5831 7.98586 15.184L7.07846 16.3169ZM13.9215 16.3169C15.3144 15.235 17.096 13.9962 18.4927 12.4468C19.9158 10.8696 21 8.91431 21 6.35028H19.5349C19.5349 8.46325 18.6558 10.0925 17.3978 11.4889C16.1133 12.9123 14.4949 14.0347 13.0141 15.184L13.9215 16.3169ZM21 6.35028C21 3.742 19.5007 1.47995 17.3372 0.505696C15.1259 -0.489719 12.3578 -0.086744 9.97256 2.35226L11.0274 3.35249C13.0376 1.29722 15.1532 1.10872 16.7277 1.81753C18.3481 2.5475 19.5349 4.28154 19.5349 6.35028H21ZM13.0141 15.184C12.5004 15.5831 12.0423 15.9332 11.5998 16.1871C11.1583 16.441 10.8028 16.5574 10.5 16.5574V18C11.174 18 11.7952 17.7451 12.3392 17.4326C12.8842 17.119 13.4205 16.7055 13.9215 16.3169L13.0141 15.184Z" fill="black"/>
</svg>
