<svg width="18" height="20" viewBox="0 0 18 20" fill="none" xmlns="http://www.w3.org/2000/svg">
<g id="Group">
<path id="Vector" fill-rule="evenodd" clip-rule="evenodd" d="M2.16723 1.79925C3.24383 0.539734 5.02468 0.774856 5.91511 2.17388L7.02156 3.91437C7.73373 5.0334 7.67401 6.58754 6.82398 7.58267L6.60884 7.8334C6.60823 7.83534 6.60764 7.83729 6.60708 7.83925C6.59566 7.87437 6.56756 7.98754 6.59566 8.20218C6.6545 8.64608 6.96272 9.54949 8.2167 11.0158C9.47419 12.4871 10.2364 12.8334 10.5903 12.8978C10.6756 12.919 10.7642 12.9167 10.8485 12.891L11.2067 12.4714C11.9742 11.5739 13.1703 11.3973 14.1353 12.0139L15.8126 13.0871C17.2465 14.0041 17.5802 16.2471 16.4343 17.5876L15.1873 19.0461C14.7983 19.5017 14.267 19.891 13.6111 19.9632C12.0094 20.1388 8.29924 19.9095 4.40999 15.3593C0.779784 11.1144 0.0904489 7.42169 0.00351364 5.61779C-0.0395149 4.72608 0.317886 3.96218 0.788565 3.41096L2.16723 1.79925ZM4.8394 3.01876C4.38979 2.31242 3.58103 2.26949 3.12177 2.80705L1.7431 4.41876C1.45331 4.76022 1.29964 5.15047 1.31896 5.53974C1.38921 7.01291 1.96087 10.371 5.36452 14.3514C8.93326 18.5271 12.2219 18.6441 13.482 18.5056C13.7305 18.4793 13.9869 18.3251 14.2319 18.0383L15.4789 16.5797C16.018 15.9495 15.8767 14.8158 15.1557 14.3554L13.4785 13.2822C13.028 12.9944 12.5002 13.0832 12.1622 13.4793L11.7617 13.9475L11.2989 13.4588C11.7617 13.9466 11.7617 13.9475 11.7608 13.9485L11.76 13.9495L11.7573 13.9534L11.7512 13.9593L11.7389 13.9729C11.702 14.0131 11.6621 14.0497 11.6195 14.0822C11.5492 14.1368 11.4561 14.1983 11.3376 14.25C11.0952 14.3563 10.7756 14.4129 10.3795 14.3417C9.60854 14.2032 8.59869 13.5875 7.26217 12.0236C5.92038 10.4549 5.40667 9.28511 5.29251 8.41389C5.23368 7.97096 5.28022 7.61681 5.36628 7.34852C5.41404 7.19901 5.48216 7.05851 5.56825 6.93193L5.59459 6.89584L5.60689 6.8812L5.61215 6.87437L5.61479 6.87145L5.61654 6.87047C5.61654 6.87047 5.61654 6.86852 6.08459 7.3612L5.61742 6.86852L5.86945 6.57388C6.26022 6.11632 6.3173 5.34169 5.94672 4.75925L4.8394 3.01876Z" fill="black"/>
<path id="Vector_2" d="M9.66902 0.614275C9.69725 0.422763 9.79272 0.251517 9.93446 0.138115C10.0762 0.0247133 10.2527 -0.021579 10.4251 0.00939682C10.4471 0.0142749 10.5191 0.028909 10.5568 0.0386651C10.6315 0.0562261 10.736 0.0854945 10.8659 0.12647C11.1267 0.211348 11.4912 0.350861 11.9285 0.5733C12.8031 1.01915 13.9666 1.79867 15.1749 3.14013C16.3832 4.48257 17.0849 5.77623 17.4862 6.74794C17.6864 7.23379 17.8111 7.6377 17.8875 7.92843C17.926 8.07451 17.9591 8.22227 17.9867 8.37136L17.9911 8.4016C18.02 8.5948 17.9794 8.79289 17.8781 8.95314C17.7767 9.11339 17.6227 9.22295 17.4493 9.25818C17.2773 9.2892 17.1013 9.24328 16.9598 9.13046C16.8183 9.01765 16.7227 8.84713 16.6941 8.65623C16.6761 8.54841 16.6524 8.44188 16.623 8.33721C16.5332 8.00215 16.4217 7.67479 16.2893 7.3577C15.9468 6.52843 15.3304 5.38306 14.2432 4.17525C13.157 2.96745 12.1252 2.28354 11.3787 1.90306C11.0936 1.75595 10.7993 1.63205 10.498 1.53232C10.4056 1.50336 10.3125 1.47734 10.2187 1.45428C10.0461 1.4226 9.89157 1.31675 9.78855 1.15959C9.68554 1.00243 9.64229 0.80656 9.66815 0.614275H9.66902Z" fill="black"/>
<path id="Vector_3" fill-rule="evenodd" clip-rule="evenodd" d="M9.86737 3.97677C9.89105 3.88432 9.93089 3.79795 9.98462 3.72261C10.0383 3.64728 10.1049 3.58444 10.1805 3.53769C10.2561 3.49094 10.3392 3.46119 10.4252 3.45015C10.5111 3.43911 10.5982 3.447 10.6814 3.47335L10.5005 4.17677L10.6823 3.47433H10.684L10.6875 3.4753L10.6937 3.47725L10.7113 3.48408C10.7805 3.50986 10.8488 3.53883 10.9159 3.57091C11.0441 3.6314 11.2188 3.72506 11.434 3.86652C11.8642 4.14945 12.45 4.61774 13.1393 5.38457C13.8286 6.15043 14.2519 6.80214 14.5057 7.27921C14.633 7.51823 14.7173 7.71238 14.7726 7.85482C14.8015 7.92934 14.8276 8.00518 14.8508 8.08214L14.856 8.10165L14.8578 8.10945L14.8587 8.11238V8.11433L14.2264 8.31628L14.8596 8.11531C14.9087 8.30161 14.8892 8.50196 14.8054 8.6723C14.7216 8.84264 14.5803 8.969 14.4126 9.0236C14.2449 9.0782 14.0646 9.05655 13.9113 8.96342C13.7579 8.87029 13.6442 8.71331 13.595 8.52702L13.5924 8.51726C13.5307 8.34736 13.4573 8.18297 13.3729 8.02555C13.1762 7.65775 12.8232 7.10165 12.2085 6.41872C11.5938 5.73579 11.0932 5.3436 10.7631 5.12604C10.6214 5.03229 10.4734 4.95075 10.3205 4.88213L10.3117 4.87823C10.1457 4.82303 10.0059 4.69733 9.92272 4.5284C9.83954 4.35946 9.81966 4.16188 9.86737 3.97677Z" fill="black"/>
</g>
</svg>
