<svg
  width="32"
  height="28"
  viewBox="0 0 32 28"
  xmlns="http://www.w3.org/2000/svg"
>
  <path
    id="Vector"
    d="M28.3079 4.02174H24.0433L21.9464 1.02239C21.8341 0.861788 21.6819 0.730091 21.5035 0.63897C21.325 0.547849 21.1257 0.500116 20.9233 0.5H11.0772C10.8747 0.500116 10.6755 0.547849 10.497 0.63897C10.3186 0.730091 10.1664 0.861788 10.0541 1.02239L7.95563 4.02174H3.69255C2.71329 4.02174 1.77414 4.39278 1.0817 5.05323C0.389254 5.71369 0.000244141 6.60945 0.000244141 7.54348V23.9783C0.000244141 24.9123 0.389254 25.8081 1.0817 26.4685C1.77414 27.129 2.71329 27.5 3.69255 27.5H28.3079C29.2872 27.5 30.2264 27.129 30.9188 26.4685C31.6112 25.8081 32.0002 24.9123 32.0002 23.9783V7.54348C32.0002 6.60945 31.6112 5.71369 30.9188 5.05323C30.2264 4.39278 29.2872 4.02174 28.3079 4.02174ZM29.5387 23.9783C29.5387 24.2896 29.409 24.5882 29.1782 24.8083C28.9474 25.0285 28.6344 25.1522 28.3079 25.1522H3.69255C3.36613 25.1522 3.05308 25.0285 2.82227 24.8083C2.59145 24.5882 2.46178 24.2896 2.46178 23.9783V7.54348C2.46178 7.23214 2.59145 6.93355 2.82227 6.7134C3.05308 6.49325 3.36613 6.36957 3.69255 6.36957H8.61563C8.81831 6.36969 9.01788 6.32207 9.19663 6.23094C9.37537 6.13981 9.52776 6.00798 9.64025 5.84717L11.7356 2.84783H20.2633L22.3602 5.84717C22.4727 6.00798 22.6251 6.13981 22.8039 6.23094C22.9826 6.32207 23.1822 6.36969 23.3849 6.36957H28.3079C28.6344 6.36957 28.9474 6.49325 29.1782 6.7134C29.409 6.93355 29.5387 7.23214 29.5387 7.54348V23.9783ZM16.0002 8.71739C14.6614 8.71739 13.3527 9.09606 12.2395 9.80551C11.1263 10.515 10.2586 11.5233 9.74629 12.7031C9.23394 13.8829 9.09989 15.1811 9.36108 16.4335C9.62228 17.686 10.267 18.8364 11.2137 19.7394C12.1604 20.6423 13.3665 21.2572 14.6796 21.5064C15.9927 21.7555 17.3538 21.6276 18.5907 21.139C19.8276 20.6503 20.8848 19.8227 21.6287 18.761C22.3725 17.6992 22.7695 16.4509 22.7695 15.1739C22.7674 13.4621 22.0536 11.821 20.7846 10.6106C19.5155 9.4002 17.7949 8.71933 16.0002 8.71739ZM16.0002 19.2826C15.1483 19.2826 14.3154 19.0416 13.607 18.5902C12.8986 18.1387 12.3465 17.497 12.0205 16.7462C11.6944 15.9955 11.6091 15.1694 11.7753 14.3723C11.9415 13.5753 12.3518 12.8432 12.9542 12.2686C13.5567 11.694 14.3242 11.3027 15.1599 11.1442C15.9955 10.9856 16.8616 11.067 17.6487 11.378C18.4359 11.6889 19.1086 12.2156 19.582 12.8912C20.0553 13.5669 20.3079 14.3613 20.3079 15.1739C20.3079 16.2636 19.8541 17.3087 19.0462 18.0792C18.2384 18.8497 17.1427 19.2826 16.0002 19.2826Z"
    stroke="#000" stroke-width="0.3"
  />
</svg>