<svg width="17" height="22" viewBox="0 0 17 22" fill="none" xmlns="http://www.w3.org/2000/svg">
<g id="Group">
<path id="Vector" d="M1 9.143C1 4.646 4.35812 1 8.5 1C12.6419 1 16 4.646 16 9.143C16 13.605 13.6066 18.813 9.87156 20.674C9.44227 20.8884 8.97403 20.9996 8.5 20.9996C8.02597 20.9996 7.55773 20.8884 7.12844 20.674C3.39344 18.812 1 13.605 1 9.144V9.143Z" stroke="black" stroke-width="1.5"/>
<path id="Vector_2" d="M8.49994 12C10.0532 12 11.3124 10.6569 11.3124 9C11.3124 7.34315 10.0532 6 8.49994 6C6.94664 6 5.68744 7.34315 5.68744 9C5.68744 10.6569 6.94664 12 8.49994 12Z" stroke="black" stroke-width="1.5"/>
</g>
</svg>
