<svg width="34" height="34" viewBox="0 0 34 34" fill="currentColor" xmlns="http://www.w3.org/2000/svg">
<g id="free-icon-printer-689402 1" clip-path="url(#clip0_518_91)">
<g id="Group">
<path id="Vector" d="M7.00587 0.906898C6.71368 1.05963 6.57423 1.19909 6.43478 1.47135C6.32189 1.69713 6.3086 1.88307 6.3086 3.51002V5.29635L5.23282 5.32291C4.26993 5.34283 4.1172 5.36276 3.87814 5.48893C3.50626 5.68815 3.19415 6.0069 3.02814 6.37213C2.89532 6.65768 2.88868 6.78385 2.86876 9.93151L2.84884 13.1921L2.13829 13.2253C1.68009 13.2452 1.33478 13.2983 1.16212 13.3713C0.796885 13.5241 0.365245 13.9624 0.199229 14.3542C0.0597759 14.6729 0.0597759 14.7592 0.0199322 21.3999C-0.0199116 27.7549 -0.0132709 28.1401 0.0996197 28.4788C0.245713 28.9303 0.657432 29.3819 1.09571 29.5878C1.4211 29.7471 1.45431 29.7471 3.73868 29.7471C5.3922 29.7471 6.04298 29.7671 6.04298 29.8202C6.04298 29.86 5.86368 30.3979 5.64454 31.0088C5.22618 32.1842 5.18634 32.4233 5.34571 32.7354C5.56485 33.1604 4.74142 33.1338 16.9801 33.1803C27.2664 33.2202 28.1363 33.2135 28.3356 33.1139C28.8735 32.835 28.8735 32.5362 28.3555 31.062C28.1363 30.4378 27.957 29.9198 27.957 29.9065C27.957 29.8932 28.993 29.8799 30.268 29.8667C32.3133 29.8467 32.5988 29.8335 32.8379 29.7272C33.2098 29.5612 33.6348 29.1229 33.8008 28.7378C33.9403 28.419 33.9403 28.3393 33.9801 21.6589C34.0133 14.9053 34.0133 14.9053 33.8738 14.5401C33.7078 14.0885 33.3426 13.71 32.9043 13.5042C32.6188 13.3713 32.466 13.3448 31.8617 13.3448H31.1445V10.071C31.1445 8.02565 31.118 6.7108 31.0781 6.55807C30.9719 6.17955 30.6133 5.76119 30.2149 5.54205C29.8563 5.34948 29.8231 5.34948 28.7406 5.32291L27.6317 5.29635L27.6117 3.42369L27.5918 1.5444L27.4059 1.30533C27.2996 1.16588 27.1004 0.999866 26.961 0.926819C26.702 0.794006 26.5559 0.794006 16.9535 0.794006C8.1879 0.800648 7.18517 0.807289 7.00587 0.906898ZM26.6156 7.54752L26.6289 13.2784H18.275C13.6797 13.2784 9.33009 13.2585 8.6129 13.2319L7.3047 13.1921V7.53424C7.3047 4.42643 7.32462 1.85651 7.35118 1.83658C7.37111 1.81002 11.7141 1.79674 16.9934 1.80338L26.5957 1.8233L26.6156 7.54752ZM6.3086 9.75885V13.212H5.08009H3.84493L3.86485 9.99791L3.88478 6.78385L4.05079 6.60455C4.29649 6.33893 4.40275 6.31237 5.39884 6.31237L6.3086 6.30573V9.75885ZM29.8231 6.45846C29.916 6.51822 30.0289 6.65104 30.0688 6.74401C30.1285 6.86354 30.1485 7.83971 30.1485 10.1307V13.3448L28.9067 13.3315L27.6582 13.3116L27.6383 9.89166C27.6317 8.01237 27.6383 6.4319 27.6582 6.38541C27.7113 6.23932 29.5906 6.29908 29.8231 6.45846ZM18.3414 14.2745C33.834 14.3342 32.5856 14.2944 32.8778 14.7592C33.0172 14.9717 33.0172 15.0049 32.9774 21.6323L32.9442 28.2862L32.8047 28.4854C32.5457 28.844 32.393 28.8839 31.1445 28.8839H30.0156V27.5889C30.0156 26.1745 29.9824 26.0018 29.6438 25.6831C29.2254 25.2913 30.0356 25.3178 16.9867 25.2647L4.98712 25.2182L4.68165 25.3643C4.48907 25.4573 4.30978 25.6167 4.19689 25.7827C4.01759 26.0483 4.01759 26.0616 3.99767 27.403L3.97775 28.751H2.80235C1.75314 28.751 1.60704 28.7378 1.41446 28.6182C0.942979 28.3327 0.969542 28.8042 1.01603 21.4331C1.06251 14.0885 1.02267 14.6198 1.49415 14.3342C1.67345 14.2213 1.83946 14.2081 3.02149 14.2081C3.75196 14.2147 10.6449 14.2413 18.3414 14.2745ZM7.1254 26.8717C6.99923 27.2303 6.80001 27.7881 6.68048 28.1202L6.46798 28.7178L5.72423 28.7378L4.98048 28.7577V27.569C4.98048 26.7389 5.00704 26.3604 5.06017 26.3073C5.11329 26.2542 5.47189 26.2276 6.24884 26.2276H7.35782L7.1254 26.8717ZM20.7719 26.2874L25.6461 26.3272L26.6688 29.2491C27.2332 30.8561 27.6914 32.1842 27.6914 32.1975C27.6914 32.2307 6.36837 32.151 6.33517 32.1178C6.31525 32.0979 8.20782 26.7456 8.3672 26.3737L8.43361 26.2276L12.1656 26.2342C14.2242 26.2409 18.0957 26.2674 20.7719 26.2874ZM28.9399 26.3737C28.993 26.4268 29.0195 26.812 29.0195 27.6686V28.8839H28.3156H27.6184L27.532 28.6647C27.4789 28.5518 27.2863 28.0139 27.1004 27.476C26.9145 26.9381 26.7418 26.4534 26.7219 26.3936C26.6887 26.3073 26.8215 26.294 27.7711 26.294C28.5281 26.294 28.8867 26.3206 28.9399 26.3737Z" fill="#000" stroke="#000" stroke-width="1"/>
<path id="Vector_2" d="M9.78163 5.10938C9.46952 5.23555 9.40975 5.62734 9.6621 5.87305C9.81483 6.03242 9.85468 6.03906 10.7445 6.03906C11.6211 6.03906 11.6742 6.03242 11.807 5.88633C12.0129 5.66719 11.9996 5.35508 11.7805 5.18242C11.6211 5.05625 11.5148 5.04297 10.7644 5.04961C10.3062 5.04961 9.86132 5.07617 9.78163 5.10938Z" fill="#333333"/>
<path id="Vector_3" d="M13.9652 5.10938C13.6531 5.23555 13.5933 5.62734 13.8457 5.87305L14.0051 6.03906H19.1914H24.3777L24.5504 5.86641C24.6832 5.73359 24.7098 5.66055 24.6765 5.48789C24.5902 5.04961 24.9555 5.07617 19.2711 5.06289C16.3758 5.05625 14.0449 5.07617 13.9652 5.10938Z" fill="#333333"/>
<path id="Vector_4" d="M9.83475 8.83477C9.48944 8.97422 9.40311 9.29297 9.63553 9.58516L9.76835 9.75781H14.9812C20.1012 9.75781 20.1875 9.75781 20.3203 9.625C20.4996 9.4457 20.493 9.08711 20.3137 8.92109C20.1808 8.80156 19.9883 8.79492 15.0808 8.78164C11.9066 8.775 9.93436 8.79492 9.83475 8.83477Z" fill="#333333"/>
<path id="Vector_5" d="M22.5383 8.85469C22.2129 8.99414 22.1531 9.29297 22.3856 9.58516C22.5184 9.75781 22.525 9.75781 23.4746 9.75781C24.4242 9.75781 24.4309 9.75781 24.5637 9.58516C24.6434 9.48555 24.7031 9.36602 24.7031 9.31953C24.7031 9.12695 24.5371 8.89453 24.3512 8.82813C24.059 8.72852 22.7906 8.74844 22.5383 8.85469Z" fill="#333333"/>
<path id="Vector_6" d="M27.791 16.4886C27.3594 16.7476 27.2067 17.0929 27.1735 17.8897C27.1336 18.8128 27.2332 19.2577 27.5586 19.5831C27.884 19.9085 28.3289 20.0081 29.2586 19.9683C30.0555 19.9351 30.4207 19.769 30.6664 19.3308C30.7992 19.0917 30.8125 18.9788 30.8125 18.1687C30.8125 17.1991 30.766 16.9999 30.4938 16.7011C30.1949 16.3823 29.9758 16.3292 28.9731 16.3292C28.1231 16.3292 28.0367 16.3425 27.791 16.4886ZM29.8032 18.089C29.8231 18.9921 29.8297 18.9854 28.9797 18.9854C28.1696 18.9854 28.1563 18.9722 28.1563 18.1288C28.1563 17.7104 28.1828 17.4581 28.236 17.405C28.2957 17.3452 28.5414 17.3253 29.0528 17.3386L29.7832 17.3585L29.8032 18.089Z" fill="#333333"/>
</g>
</g>
<defs>
<clipPath id="clip0_518_91">
<rect width="34" height="34" fill="currentColor"/>
</clipPath>
</defs>
</svg>
