<svg width="33" height="34" viewBox="0 0 33 34" fill="none" xmlns="http://www.w3.org/2000/svg">
<g id="Group">
<path id="Vector" d="M2.42839 0.557243C1.28751 0.750652 0.256214 1.80797 0.0628449 2.98133C-0.0209483 3.49709 -0.0209483 30.4973 0.0628449 31.0131C0.256214 32.2187 1.28107 33.2437 2.4864 33.4371C3.00205 33.521 29.9963 33.521 30.512 33.4371C31.7173 33.2437 32.7422 32.2187 32.9355 31.0131C32.9742 30.781 33 26.1133 33 18.8797C33 8.54512 32.9871 7.09454 32.9033 6.91402C32.7744 6.64325 26.7671 0.647499 26.535 0.56369C26.3159 0.479877 2.91181 0.479877 2.42839 0.557243ZM5.99282 6.53365C5.99282 9.18983 6.0186 11.2593 6.05728 11.485C6.18619 12.278 6.77919 13.1612 7.44953 13.5545C7.59134 13.6383 7.88139 13.7672 8.08765 13.8381C8.45505 13.9671 8.62264 13.9671 15.7257 13.9671C23.7699 13.9671 23.3058 13.9929 24.047 13.5416C24.6465 13.1805 25.0719 12.6519 25.3426 11.9298C25.4844 11.5494 25.4844 11.5108 25.5102 6.75929L25.5295 1.97559H25.7358C25.9227 1.97559 26.2192 2.25281 28.733 4.76716L31.5175 7.55228L31.5046 19.2214C31.4853 30.4651 31.4788 30.897 31.3628 31.1162C31.1952 31.4321 30.9503 31.6835 30.6473 31.8447C30.4282 31.9608 30.2477 31.9866 29.442 32.0059L28.4881 32.0317V24.8046C28.4881 16.8231 28.5138 17.3067 28.0755 17.1003C27.8757 17.0036 26.8767 16.9972 16.4992 16.9972C6.12173 16.9972 5.12266 17.0036 4.92285 17.1003C4.48455 17.3067 4.51033 16.8231 4.51033 24.8046V32.0317L3.56282 32.0059C2.80224 31.9866 2.56375 31.9543 2.38327 31.8641C2.06744 31.7029 1.81606 31.4515 1.65491 31.1484L1.51311 30.8906V16.9972C1.51311 3.56801 1.51956 3.09738 1.63558 2.87818C1.86762 2.43333 2.22858 2.14321 2.67332 2.03361C2.7829 2.00783 3.56927 1.98849 4.43298 1.98204L5.99282 1.97559V6.53365ZM23.9761 6.66259C23.9761 11.0659 23.9632 11.3689 23.8537 11.6139C23.7054 11.9427 23.28 12.3295 22.9642 12.4133C22.7966 12.4585 20.4504 12.4843 15.6935 12.4843C9.02871 12.4843 8.65487 12.4778 8.40993 12.3618C8.08765 12.2199 7.79115 11.9298 7.63001 11.601C7.51399 11.3689 7.50754 11.1239 7.48821 6.75285C7.48176 4.21916 7.48821 2.10453 7.5011 2.0594C7.52688 1.98849 9.00293 1.97559 15.7579 1.97559H23.9761V6.66259ZM27.0056 25.2494V32.0188H16.4992H5.99282V25.2494V18.48H16.4992H27.0056V25.2494Z" fill="#333333"/>
<path id="Vector_2" d="M18.2524 3.71672C18.1493 3.82632 18.0462 4.00039 18.0204 4.11644C18.001 4.22604 17.9817 5.65728 17.9881 7.29483C17.9881 10.499 18.001 10.6022 18.3233 10.8407C18.4973 10.9696 18.6005 10.9761 20.1797 10.9954C22.0553 11.0148 22.2036 10.989 22.3905 10.5893C22.5388 10.2798 22.5452 4.2067 22.397 3.91658C22.1971 3.52976 22.1842 3.52976 20.2312 3.52976H18.4458L18.2524 3.71672ZM21.0111 7.26904V9.52551H20.2699H19.5286V7.26904V5.01258H20.2699H21.0111V7.26904Z" fill="#333333"/>
</g>
</svg>
