<svg width="24" height="24" viewBox="0 0 24 24" fill="none" xmlns="http://www.w3.org/2000/svg">
<g id="solar:smile-circle-linear">
<g id="Group">
<path id="Vector" d="M12.0002 22C17.5231 22 22.0002 17.5228 22.0002 12C22.0002 6.47715 17.5231 2 12.0002 2C6.4774 2 2.00024 6.47715 2.00024 12C2.00024 17.5228 6.4774 22 12.0002 22Z" stroke="black" stroke-width="1.5"/>
<path id="Vector_2" d="M9.00024 16C9.85024 16.63 10.8852 17 12.0002 17C13.1152 17 14.1502 16.63 15.0002 16" stroke="black" stroke-width="1.5" stroke-linecap="round"/>
<path id="Vector_3" d="M16.0002 10.5C16.0002 11.328 15.5522 12 15.0002 12C14.4482 12 14.0002 11.328 14.0002 10.5C14.0002 9.672 14.4482 9 15.0002 9C15.5522 9 16.0002 9.672 16.0002 10.5Z" fill="black"/>
<path id="Vector_4" d="M9.00024 12C9.55253 12 10.0002 11.3284 10.0002 10.5C10.0002 9.67157 9.55253 9 9.00024 9C8.44796 9 8.00024 9.67157 8.00024 10.5C8.00024 11.3284 8.44796 12 9.00024 12Z" fill="black"/>
</g>
</g>
</svg>
