<svg width="26" height="24" viewBox="0 0 26 24" fill="none" xmlns="http://www.w3.org/2000/svg">
<path id="Vector" d="M24.3382 0.685444L1.20903 10.0819C-0.351832 10.6785 -0.351832 11.7225 0.925237 12.0208L6.743 13.9597L9.01334 21.1189C9.29714 21.8647 9.15524 22.163 9.86472 22.163C10.4323 22.163 10.7161 21.8647 10.9999 21.5664C11.1418 21.4172 12.4189 20.0749 13.8378 18.5834L19.7975 23.207C20.9327 23.8036 21.6421 23.5053 21.9259 22.163L25.899 2.62439C26.3247 0.983742 25.3315 0.0888458 24.3382 0.685444ZM21.3583 5.15993L10.2904 15.7495L9.86472 20.6715L7.59438 13.5123L20.6489 4.86163C21.2164 4.41418 21.784 4.71248 21.3583 5.15993Z" fill="black"/>
</svg>
