<svg width="23" height="24" viewBox="0 0 23 24" fill="none" xmlns="http://www.w3.org/2000/svg">
<g id="WA_Logo">
<g id="Group">
<path id="Vector" fill-rule="evenodd" clip-rule="evenodd" d="M19.646 3.85417C17.4898 1.69792 14.5669 0.5 11.5002 0.5C5.1848 0.5 0.000213623 5.68458 0.000213623 12C0.000213623 14.0221 0.62313 15.9388 1.62938 17.6733L0.000213623 23.5L6.06646 22.0146C7.74355 22.9346 9.58355 23.5 11.5002 23.5C17.8156 23.5 23.0002 18.3154 23.0002 12C23.0002 8.94292 21.8119 6.02 19.646 3.85417ZM11.5002 21.5833C9.79438 21.5833 8.16521 21.0179 6.69896 20.1554L6.35396 19.9446L2.75063 20.8933L3.70896 17.3762L3.47896 17.0121C2.53021 15.4979 1.91688 13.8017 1.91688 12C1.91688 6.74833 6.24855 2.41667 11.5002 2.41667C14.0398 2.41667 16.4835 3.42292 18.2852 5.22458C20.0869 7.02625 21.0835 9.46042 21.0835 12C21.0835 17.2517 16.7423 21.5833 11.5002 21.5833ZM16.771 14.3479C16.4835 14.2042 15.0748 13.5142 14.816 13.4183C14.5573 13.3225 14.3656 13.2746 14.174 13.5621C13.9823 13.8496 13.436 14.4917 13.2635 14.6833C13.1006 14.875 12.9281 14.8942 12.6406 14.7504C12.3531 14.6067 11.4331 14.3096 10.3406 13.3321C9.48771 12.575 8.91271 11.6358 8.7498 11.3483C8.58688 11.0608 8.73063 10.9075 8.87438 10.7638C8.99896 10.6392 9.16188 10.4283 9.30563 10.2654C9.44938 10.1025 9.4973 9.97792 9.59313 9.78625C9.68896 9.59458 9.64105 9.43167 9.57396 9.28792C9.4973 9.14417 8.9223 7.73542 8.68271 7.16042C8.45271 6.60458 8.21313 6.68125 8.04063 6.67167C7.87771 6.66208 7.68605 6.66208 7.49438 6.66208C7.30271 6.66208 6.99605 6.73875 6.72771 7.01667C6.46896 7.30417 5.73105 8.00375 5.73105 9.4125C5.73105 10.8212 6.75646 12.1821 6.90021 12.3737C7.04396 12.5654 8.9223 15.4596 11.7877 16.6958C12.4681 16.9929 13.0048 17.1654 13.4169 17.2996C14.1069 17.52 14.7298 17.4912 15.2185 17.4146C15.7648 17.3283 16.9148 16.7246 17.1544 16.0537C17.394 15.3829 17.394 14.8079 17.3173 14.6929C17.2502 14.5683 17.0585 14.4917 16.771 14.3479Z" fill="black"/>
</g>
</g>
</svg>
