<svg width="29" height="24" viewBox="0 0 29 24" fill="none" xmlns="http://www.w3.org/2000/svg">
<path id="Vector" d="M27.842 20.2215C27.3118 21.4818 25.9443 22.6231 24.6601 22.8752C24.5287 22.901 21.3902 23.5 14.5089 23.5H14.4907C7.61026 23.5 4.4691 22.901 4.3386 22.8761C3.0544 22.6231 1.68592 21.4817 1.15484 20.2206C1.10772 20.1085 0.000244141 17.4117 0.000244141 12C0.000244141 6.58829 1.10772 3.89058 1.15484 3.77846C1.68592 2.51729 3.0544 1.37687 4.3386 1.12483C4.4691 1.09896 7.61026 0.5 14.4907 0.5C21.3902 0.5 24.5287 1.09896 24.6592 1.12388C25.9443 1.37687 27.3118 2.51729 27.8429 3.7775C27.8901 3.89058 29.0002 6.58829 29.0002 12C29.0002 17.4117 27.8901 20.1085 27.842 20.2215ZM26.1844 4.55375C25.9017 3.88196 25.0153 3.14404 24.3284 3.00892C24.2994 3.00317 21.1936 2.41667 14.5089 2.41667C7.80693 2.41667 4.69839 3.00317 4.66848 3.00892C3.98152 3.14404 3.09609 3.88196 2.81243 4.55758C2.80336 4.57771 1.81371 7.04446 1.81371 12C1.81371 16.9546 2.80336 19.4213 2.81424 19.4463C3.09609 20.118 3.98152 20.856 4.66939 20.9911C4.69839 20.9968 7.80692 21.5833 14.4907 21.5833H14.5089C21.1936 21.5833 24.2994 20.9968 24.3293 20.9911C25.0162 20.856 25.9017 20.118 26.1853 19.4424C26.1944 19.4213 27.1859 16.9546 27.1859 12C27.1859 7.04542 26.1944 4.57771 26.1844 4.55375ZM12.2713 17.6024C12.1244 17.7011 11.9559 17.75 11.7882 17.75C11.6378 17.75 11.4873 17.7107 11.3505 17.6302C11.0614 17.4615 10.8819 17.1405 10.8819 16.7917V7.20833C10.8819 6.86046 11.0596 6.54037 11.3468 6.37171C11.6341 6.20208 11.9867 6.20975 12.2649 6.39279L19.5324 11.1423C19.7979 11.3157 19.961 11.6224 19.9619 11.953C19.9628 12.2837 19.8033 12.5922 19.5387 12.7676L12.2713 17.6024ZM12.6954 8.92758V15.0561L17.3428 11.9645L12.6954 8.92758Z" fill="black"/>
</svg>
